<mxfile host="app.diagrams.net" agent="Mozilla/5.0 (Windows NT 10.0; Win64; x64) AppleWebKit/537.36 (KHTML, like Gecko) Chrome/130.0.0.0 Safari/537.36" version="24.8.2" pages="2">
  <diagram id="C5RBs43oDa-KdzZeNtuy" name="Page-1">
    <mxGraphModel dx="440" dy="545" grid="1" gridSize="10" guides="1" tooltips="1" connect="1" arrows="1" fold="1" page="1" pageScale="1" pageWidth="827" pageHeight="1169" math="0" shadow="0">
      <root>
        <mxCell id="WIyWlLk6GJQsqaUBKTNV-0" />
        <mxCell id="WIyWlLk6GJQsqaUBKTNV-1" parent="WIyWlLk6GJQsqaUBKTNV-0" />
        <mxCell id="JV5kQsArWoztc2nQ-qtf-7" value="" style="edgeStyle=orthogonalEdgeStyle;rounded=0;orthogonalLoop=1;jettySize=auto;html=1;" parent="WIyWlLk6GJQsqaUBKTNV-1" source="lLmSjJzB7kvuS2VgkGlA-1" target="JV5kQsArWoztc2nQ-qtf-1" edge="1">
          <mxGeometry relative="1" as="geometry" />
        </mxCell>
        <mxCell id="lLmSjJzB7kvuS2VgkGlA-1" value="" style="ellipse;whiteSpace=wrap;html=1;" parent="WIyWlLk6GJQsqaUBKTNV-1" vertex="1">
          <mxGeometry x="150" y="70" width="100" height="60" as="geometry" />
        </mxCell>
        <mxCell id="lLmSjJzB7kvuS2VgkGlA-2" value="Start" style="text;strokeColor=none;align=center;fillColor=none;html=1;verticalAlign=middle;whiteSpace=wrap;rounded=0;" parent="WIyWlLk6GJQsqaUBKTNV-1" vertex="1">
          <mxGeometry x="170" y="85" width="60" height="30" as="geometry" />
        </mxCell>
        <mxCell id="JV5kQsArWoztc2nQ-qtf-31" value="" style="edgeStyle=orthogonalEdgeStyle;rounded=0;orthogonalLoop=1;jettySize=auto;html=1;" parent="WIyWlLk6GJQsqaUBKTNV-1" source="JV5kQsArWoztc2nQ-qtf-1" target="JV5kQsArWoztc2nQ-qtf-30" edge="1">
          <mxGeometry relative="1" as="geometry" />
        </mxCell>
        <mxCell id="JV5kQsArWoztc2nQ-qtf-1" value="Choose,&lt;div&gt;option&lt;/div&gt;" style="shape=parallelogram;perimeter=parallelogramPerimeter;whiteSpace=wrap;html=1;fixedSize=1;" parent="WIyWlLk6GJQsqaUBKTNV-1" vertex="1">
          <mxGeometry x="110" y="180" width="180" height="60" as="geometry" />
        </mxCell>
        <mxCell id="JV5kQsArWoztc2nQ-qtf-18" value="Stop" style="ellipse;whiteSpace=wrap;html=1;" parent="WIyWlLk6GJQsqaUBKTNV-1" vertex="1">
          <mxGeometry x="155" y="780" width="100" height="60" as="geometry" />
        </mxCell>
        <mxCell id="JV5kQsArWoztc2nQ-qtf-39" value="" style="edgeStyle=orthogonalEdgeStyle;rounded=0;orthogonalLoop=1;jettySize=auto;html=1;" parent="WIyWlLk6GJQsqaUBKTNV-1" source="JV5kQsArWoztc2nQ-qtf-30" target="JV5kQsArWoztc2nQ-qtf-38" edge="1">
          <mxGeometry relative="1" as="geometry" />
        </mxCell>
        <mxCell id="3vi8jpDH2Nh58lLkIZC9-1" value="" style="edgeStyle=orthogonalEdgeStyle;rounded=0;orthogonalLoop=1;jettySize=auto;html=1;" parent="WIyWlLk6GJQsqaUBKTNV-1" source="JV5kQsArWoztc2nQ-qtf-30" target="3vi8jpDH2Nh58lLkIZC9-0" edge="1">
          <mxGeometry relative="1" as="geometry" />
        </mxCell>
        <mxCell id="JV5kQsArWoztc2nQ-qtf-30" value="option == 1 ?" style="rhombus;whiteSpace=wrap;html=1;fillColor=#dae8fc;strokeColor=#6c8ebf;" parent="WIyWlLk6GJQsqaUBKTNV-1" vertex="1">
          <mxGeometry x="120" y="290" width="160" height="50" as="geometry" />
        </mxCell>
        <mxCell id="JV5kQsArWoztc2nQ-qtf-44" value="" style="edgeStyle=orthogonalEdgeStyle;rounded=0;orthogonalLoop=1;jettySize=auto;html=1;" parent="WIyWlLk6GJQsqaUBKTNV-1" source="JV5kQsArWoztc2nQ-qtf-38" target="JV5kQsArWoztc2nQ-qtf-43" edge="1">
          <mxGeometry relative="1" as="geometry" />
        </mxCell>
        <mxCell id="JV5kQsArWoztc2nQ-qtf-38" value="option == 2 ?" style="rhombus;whiteSpace=wrap;html=1;fillColor=#d5e8d4;strokeColor=#82b366;" parent="WIyWlLk6GJQsqaUBKTNV-1" vertex="1">
          <mxGeometry x="120" y="390" width="160" height="50" as="geometry" />
        </mxCell>
        <mxCell id="JV5kQsArWoztc2nQ-qtf-45" value="" style="edgeStyle=orthogonalEdgeStyle;rounded=0;orthogonalLoop=1;jettySize=auto;html=1;" parent="WIyWlLk6GJQsqaUBKTNV-1" source="JV5kQsArWoztc2nQ-qtf-43" edge="1">
          <mxGeometry relative="1" as="geometry">
            <mxPoint x="200" y="590" as="targetPoint" />
          </mxGeometry>
        </mxCell>
        <mxCell id="JV5kQsArWoztc2nQ-qtf-43" value="option == 3 ?" style="rhombus;whiteSpace=wrap;html=1;fillColor=#e1d5e7;strokeColor=#9673a6;" parent="WIyWlLk6GJQsqaUBKTNV-1" vertex="1">
          <mxGeometry x="120" y="490" width="160" height="50" as="geometry" />
        </mxCell>
        <mxCell id="JV5kQsArWoztc2nQ-qtf-75" value="false" style="text;strokeColor=none;align=center;fillColor=none;html=1;verticalAlign=middle;whiteSpace=wrap;rounded=0;" parent="WIyWlLk6GJQsqaUBKTNV-1" vertex="1">
          <mxGeometry x="190" y="340" width="60" height="30" as="geometry" />
        </mxCell>
        <mxCell id="JV5kQsArWoztc2nQ-qtf-76" value="false" style="text;strokeColor=none;align=center;fillColor=none;html=1;verticalAlign=middle;whiteSpace=wrap;rounded=0;" parent="WIyWlLk6GJQsqaUBKTNV-1" vertex="1">
          <mxGeometry x="190" y="440" width="60" height="30" as="geometry" />
        </mxCell>
        <mxCell id="JV5kQsArWoztc2nQ-qtf-77" value="false" style="text;strokeColor=none;align=center;fillColor=none;html=1;verticalAlign=middle;whiteSpace=wrap;rounded=0;" parent="WIyWlLk6GJQsqaUBKTNV-1" vertex="1">
          <mxGeometry x="190" y="540" width="60" height="30" as="geometry" />
        </mxCell>
        <mxCell id="3vi8jpDH2Nh58lLkIZC9-3" value="" style="edgeStyle=orthogonalEdgeStyle;rounded=0;orthogonalLoop=1;jettySize=auto;html=1;" parent="WIyWlLk6GJQsqaUBKTNV-1" source="3vi8jpDH2Nh58lLkIZC9-0" target="3vi8jpDH2Nh58lLkIZC9-2" edge="1">
          <mxGeometry relative="1" as="geometry" />
        </mxCell>
        <mxCell id="3vi8jpDH2Nh58lLkIZC9-0" value="Get,&lt;div&gt;V in Volt,&lt;/div&gt;&lt;div&gt;I in A&lt;/div&gt;" style="shape=parallelogram;perimeter=parallelogramPerimeter;whiteSpace=wrap;html=1;fixedSize=1;fillColor=#dae8fc;strokeColor=#6c8ebf;" parent="WIyWlLk6GJQsqaUBKTNV-1" vertex="1">
          <mxGeometry x="330" y="285" width="120" height="60" as="geometry" />
        </mxCell>
        <mxCell id="3vi8jpDH2Nh58lLkIZC9-18" value="" style="edgeStyle=orthogonalEdgeStyle;rounded=0;orthogonalLoop=1;jettySize=auto;html=1;" parent="WIyWlLk6GJQsqaUBKTNV-1" source="3vi8jpDH2Nh58lLkIZC9-2" target="3vi8jpDH2Nh58lLkIZC9-17" edge="1">
          <mxGeometry relative="1" as="geometry" />
        </mxCell>
        <mxCell id="3vi8jpDH2Nh58lLkIZC9-2" value="(R, P) = count 1 (V, I)" style="shape=process;whiteSpace=wrap;html=1;backgroundOutline=1;fillColor=#dae8fc;strokeColor=#6c8ebf;" parent="WIyWlLk6GJQsqaUBKTNV-1" vertex="1">
          <mxGeometry x="480" y="285" width="150" height="60" as="geometry" />
        </mxCell>
        <mxCell id="3vi8jpDH2Nh58lLkIZC9-4" value="true" style="text;strokeColor=none;align=center;fillColor=none;html=1;verticalAlign=middle;whiteSpace=wrap;rounded=0;" parent="WIyWlLk6GJQsqaUBKTNV-1" vertex="1">
          <mxGeometry x="260" y="285" width="60" height="30" as="geometry" />
        </mxCell>
        <mxCell id="3vi8jpDH2Nh58lLkIZC9-5" value="" style="edgeStyle=orthogonalEdgeStyle;rounded=0;orthogonalLoop=1;jettySize=auto;html=1;" parent="WIyWlLk6GJQsqaUBKTNV-1" target="3vi8jpDH2Nh58lLkIZC9-7" edge="1">
          <mxGeometry relative="1" as="geometry">
            <mxPoint x="280" y="415" as="sourcePoint" />
          </mxGeometry>
        </mxCell>
        <mxCell id="3vi8jpDH2Nh58lLkIZC9-6" value="" style="edgeStyle=orthogonalEdgeStyle;rounded=0;orthogonalLoop=1;jettySize=auto;html=1;" parent="WIyWlLk6GJQsqaUBKTNV-1" source="3vi8jpDH2Nh58lLkIZC9-7" target="3vi8jpDH2Nh58lLkIZC9-8" edge="1">
          <mxGeometry relative="1" as="geometry" />
        </mxCell>
        <mxCell id="3vi8jpDH2Nh58lLkIZC9-7" value="Get,&lt;div&gt;V in Volt,&lt;/div&gt;&lt;div&gt;R in Ohm&lt;/div&gt;" style="shape=parallelogram;perimeter=parallelogramPerimeter;whiteSpace=wrap;html=1;fixedSize=1;fillColor=#d5e8d4;strokeColor=#82b366;" parent="WIyWlLk6GJQsqaUBKTNV-1" vertex="1">
          <mxGeometry x="330" y="385" width="120" height="60" as="geometry" />
        </mxCell>
        <mxCell id="3vi8jpDH2Nh58lLkIZC9-8" value="(I, P) = count 2 (V, R)" style="shape=process;whiteSpace=wrap;html=1;backgroundOutline=1;fillColor=#d5e8d4;strokeColor=#82b366;" parent="WIyWlLk6GJQsqaUBKTNV-1" vertex="1">
          <mxGeometry x="480" y="385" width="150" height="60" as="geometry" />
        </mxCell>
        <mxCell id="3vi8jpDH2Nh58lLkIZC9-9" value="true" style="text;strokeColor=none;align=center;fillColor=none;html=1;verticalAlign=middle;whiteSpace=wrap;rounded=0;" parent="WIyWlLk6GJQsqaUBKTNV-1" vertex="1">
          <mxGeometry x="270" y="385" width="60" height="30" as="geometry" />
        </mxCell>
        <mxCell id="3vi8jpDH2Nh58lLkIZC9-10" value="" style="edgeStyle=orthogonalEdgeStyle;rounded=0;orthogonalLoop=1;jettySize=auto;html=1;" parent="WIyWlLk6GJQsqaUBKTNV-1" target="3vi8jpDH2Nh58lLkIZC9-12" edge="1">
          <mxGeometry relative="1" as="geometry">
            <mxPoint x="280" y="515" as="sourcePoint" />
          </mxGeometry>
        </mxCell>
        <mxCell id="3vi8jpDH2Nh58lLkIZC9-11" value="" style="edgeStyle=orthogonalEdgeStyle;rounded=0;orthogonalLoop=1;jettySize=auto;html=1;" parent="WIyWlLk6GJQsqaUBKTNV-1" source="3vi8jpDH2Nh58lLkIZC9-12" target="3vi8jpDH2Nh58lLkIZC9-13" edge="1">
          <mxGeometry relative="1" as="geometry" />
        </mxCell>
        <mxCell id="3vi8jpDH2Nh58lLkIZC9-12" value="Get,&lt;div&gt;I in A,&lt;/div&gt;&lt;div&gt;R in Ohm&lt;/div&gt;" style="shape=parallelogram;perimeter=parallelogramPerimeter;whiteSpace=wrap;html=1;fixedSize=1;fillColor=#e1d5e7;strokeColor=#9673a6;" parent="WIyWlLk6GJQsqaUBKTNV-1" vertex="1">
          <mxGeometry x="330" y="485" width="120" height="60" as="geometry" />
        </mxCell>
        <mxCell id="3vi8jpDH2Nh58lLkIZC9-13" value="(V, P) = count 3 (I, R)" style="shape=process;whiteSpace=wrap;html=1;backgroundOutline=1;fillColor=#e1d5e7;strokeColor=#9673a6;" parent="WIyWlLk6GJQsqaUBKTNV-1" vertex="1">
          <mxGeometry x="480" y="485" width="150" height="60" as="geometry" />
        </mxCell>
        <mxCell id="3vi8jpDH2Nh58lLkIZC9-14" value="true" style="text;strokeColor=none;align=center;fillColor=none;html=1;verticalAlign=middle;whiteSpace=wrap;rounded=0;" parent="WIyWlLk6GJQsqaUBKTNV-1" vertex="1">
          <mxGeometry x="260" y="485" width="60" height="30" as="geometry" />
        </mxCell>
        <mxCell id="3vi8jpDH2Nh58lLkIZC9-24" value="" style="edgeStyle=orthogonalEdgeStyle;rounded=0;orthogonalLoop=1;jettySize=auto;html=1;" parent="WIyWlLk6GJQsqaUBKTNV-1" source="3vi8jpDH2Nh58lLkIZC9-17" target="3vi8jpDH2Nh58lLkIZC9-23" edge="1">
          <mxGeometry relative="1" as="geometry" />
        </mxCell>
        <mxCell id="3vi8jpDH2Nh58lLkIZC9-17" value="Print,&lt;div&gt;R in Ohm,&lt;/div&gt;&lt;div&gt;P in Watt&lt;/div&gt;" style="shape=parallelogram;perimeter=parallelogramPerimeter;whiteSpace=wrap;html=1;fixedSize=1;fillColor=#dae8fc;strokeColor=#6c8ebf;" parent="WIyWlLk6GJQsqaUBKTNV-1" vertex="1">
          <mxGeometry x="650" y="285" width="120" height="60" as="geometry" />
        </mxCell>
        <mxCell id="3vi8jpDH2Nh58lLkIZC9-19" value="" style="edgeStyle=orthogonalEdgeStyle;rounded=0;orthogonalLoop=1;jettySize=auto;html=1;exitX=1;exitY=0.5;exitDx=0;exitDy=0;" parent="WIyWlLk6GJQsqaUBKTNV-1" source="3vi8jpDH2Nh58lLkIZC9-8" target="3vi8jpDH2Nh58lLkIZC9-20" edge="1">
          <mxGeometry relative="1" as="geometry">
            <mxPoint x="620" y="415" as="sourcePoint" />
          </mxGeometry>
        </mxCell>
        <mxCell id="3vi8jpDH2Nh58lLkIZC9-25" value="" style="edgeStyle=orthogonalEdgeStyle;rounded=0;orthogonalLoop=1;jettySize=auto;html=1;" parent="WIyWlLk6GJQsqaUBKTNV-1" source="3vi8jpDH2Nh58lLkIZC9-20" target="3vi8jpDH2Nh58lLkIZC9-23" edge="1">
          <mxGeometry relative="1" as="geometry" />
        </mxCell>
        <mxCell id="3vi8jpDH2Nh58lLkIZC9-20" value="Print,&lt;div&gt;I in A,&lt;/div&gt;&lt;div&gt;P in Watt&lt;/div&gt;" style="shape=parallelogram;perimeter=parallelogramPerimeter;whiteSpace=wrap;html=1;fixedSize=1;fillColor=#d5e8d4;strokeColor=#82b366;" parent="WIyWlLk6GJQsqaUBKTNV-1" vertex="1">
          <mxGeometry x="650" y="385" width="120" height="60" as="geometry" />
        </mxCell>
        <mxCell id="3vi8jpDH2Nh58lLkIZC9-26" style="edgeStyle=orthogonalEdgeStyle;rounded=0;orthogonalLoop=1;jettySize=auto;html=1;exitX=1;exitY=0.5;exitDx=0;exitDy=0;entryX=0.5;entryY=1;entryDx=0;entryDy=0;" parent="WIyWlLk6GJQsqaUBKTNV-1" source="3vi8jpDH2Nh58lLkIZC9-22" target="3vi8jpDH2Nh58lLkIZC9-23" edge="1">
          <mxGeometry relative="1" as="geometry" />
        </mxCell>
        <mxCell id="3vi8jpDH2Nh58lLkIZC9-22" value="Print,&lt;div&gt;V in Volt,&lt;/div&gt;&lt;div&gt;P in Watt&lt;/div&gt;" style="shape=parallelogram;perimeter=parallelogramPerimeter;whiteSpace=wrap;html=1;fixedSize=1;fillColor=#e1d5e7;strokeColor=#9673a6;" parent="WIyWlLk6GJQsqaUBKTNV-1" vertex="1">
          <mxGeometry x="650" y="480" width="120" height="60" as="geometry" />
        </mxCell>
        <mxCell id="3vi8jpDH2Nh58lLkIZC9-23" value="1" style="ellipse;whiteSpace=wrap;html=1;" parent="WIyWlLk6GJQsqaUBKTNV-1" vertex="1">
          <mxGeometry x="800" y="395" width="40" height="40" as="geometry" />
        </mxCell>
        <mxCell id="3vi8jpDH2Nh58lLkIZC9-29" value="" style="edgeStyle=orthogonalEdgeStyle;rounded=0;orthogonalLoop=1;jettySize=auto;html=1;" parent="WIyWlLk6GJQsqaUBKTNV-1" source="3vi8jpDH2Nh58lLkIZC9-27" target="3vi8jpDH2Nh58lLkIZC9-28" edge="1">
          <mxGeometry relative="1" as="geometry" />
        </mxCell>
        <mxCell id="3vi8jpDH2Nh58lLkIZC9-27" value="Print,&lt;div&gt;&quot;Continue with another calculation? ( Y / N )&quot;&lt;/div&gt;" style="shape=parallelogram;perimeter=parallelogramPerimeter;whiteSpace=wrap;html=1;fixedSize=1;" parent="WIyWlLk6GJQsqaUBKTNV-1" vertex="1">
          <mxGeometry x="120" y="590" width="170" height="60" as="geometry" />
        </mxCell>
        <mxCell id="3vi8jpDH2Nh58lLkIZC9-30" style="edgeStyle=orthogonalEdgeStyle;rounded=0;orthogonalLoop=1;jettySize=auto;html=1;" parent="WIyWlLk6GJQsqaUBKTNV-1" source="3vi8jpDH2Nh58lLkIZC9-28" edge="1">
          <mxGeometry relative="1" as="geometry">
            <mxPoint x="50" y="210" as="targetPoint" />
          </mxGeometry>
        </mxCell>
        <mxCell id="3vi8jpDH2Nh58lLkIZC9-33" value="" style="edgeStyle=orthogonalEdgeStyle;rounded=0;orthogonalLoop=1;jettySize=auto;html=1;" parent="WIyWlLk6GJQsqaUBKTNV-1" source="3vi8jpDH2Nh58lLkIZC9-28" target="JV5kQsArWoztc2nQ-qtf-18" edge="1">
          <mxGeometry relative="1" as="geometry" />
        </mxCell>
        <mxCell id="3vi8jpDH2Nh58lLkIZC9-28" value="enter == Y ?" style="rhombus;whiteSpace=wrap;html=1;" parent="WIyWlLk6GJQsqaUBKTNV-1" vertex="1">
          <mxGeometry x="150" y="680" width="110" height="50" as="geometry" />
        </mxCell>
        <mxCell id="3vi8jpDH2Nh58lLkIZC9-32" value="" style="endArrow=classic;html=1;rounded=0;" parent="WIyWlLk6GJQsqaUBKTNV-1" target="JV5kQsArWoztc2nQ-qtf-1" edge="1">
          <mxGeometry width="50" height="50" relative="1" as="geometry">
            <mxPoint x="50" y="210" as="sourcePoint" />
            <mxPoint x="100" y="170" as="targetPoint" />
          </mxGeometry>
        </mxCell>
        <mxCell id="3vi8jpDH2Nh58lLkIZC9-34" value="false" style="text;strokeColor=none;align=center;fillColor=none;html=1;verticalAlign=middle;whiteSpace=wrap;rounded=0;" parent="WIyWlLk6GJQsqaUBKTNV-1" vertex="1">
          <mxGeometry x="195" y="730" width="60" height="30" as="geometry" />
        </mxCell>
        <mxCell id="3vi8jpDH2Nh58lLkIZC9-35" value="true" style="text;strokeColor=none;align=center;fillColor=none;html=1;verticalAlign=middle;whiteSpace=wrap;rounded=0;" parent="WIyWlLk6GJQsqaUBKTNV-1" vertex="1">
          <mxGeometry x="110" y="680" width="60" height="30" as="geometry" />
        </mxCell>
        <mxCell id="3vi8jpDH2Nh58lLkIZC9-37" value="" style="edgeStyle=orthogonalEdgeStyle;rounded=0;orthogonalLoop=1;jettySize=auto;html=1;" parent="WIyWlLk6GJQsqaUBKTNV-1" source="3vi8jpDH2Nh58lLkIZC9-36" target="3vi8jpDH2Nh58lLkIZC9-27" edge="1">
          <mxGeometry relative="1" as="geometry" />
        </mxCell>
        <mxCell id="3vi8jpDH2Nh58lLkIZC9-36" value="1" style="ellipse;whiteSpace=wrap;html=1;" parent="WIyWlLk6GJQsqaUBKTNV-1" vertex="1">
          <mxGeometry x="340" y="600" width="40" height="40" as="geometry" />
        </mxCell>
        <mxCell id="3vi8jpDH2Nh58lLkIZC9-47" value="" style="endArrow=classic;html=1;rounded=0;entryX=0;entryY=0.5;entryDx=0;entryDy=0;exitX=1;exitY=0.5;exitDx=0;exitDy=0;" parent="WIyWlLk6GJQsqaUBKTNV-1" source="3vi8jpDH2Nh58lLkIZC9-13" edge="1">
          <mxGeometry width="50" height="50" relative="1" as="geometry">
            <mxPoint x="630" y="521" as="sourcePoint" />
            <mxPoint x="660" y="515" as="targetPoint" />
          </mxGeometry>
        </mxCell>
      </root>
    </mxGraphModel>
  </diagram>
  <diagram name="Copy of Page-1" id="pQ6eCH4j6E5Khea1NTjK">
    <mxGraphModel dx="1267" dy="545" grid="1" gridSize="10" guides="1" tooltips="1" connect="1" arrows="1" fold="1" page="1" pageScale="1" pageWidth="827" pageHeight="1169" math="0" shadow="0">
      <root>
        <mxCell id="Q2OEIJeCDK87NDH6tHqp-0" />
        <mxCell id="Q2OEIJeCDK87NDH6tHqp-1" parent="Q2OEIJeCDK87NDH6tHqp-0" />
        <mxCell id="Q2OEIJeCDK87NDH6tHqp-51" value="" style="edgeStyle=orthogonalEdgeStyle;rounded=0;orthogonalLoop=1;jettySize=auto;html=1;" parent="Q2OEIJeCDK87NDH6tHqp-1" source="Q2OEIJeCDK87NDH6tHqp-52" target="Q2OEIJeCDK87NDH6tHqp-54" edge="1">
          <mxGeometry relative="1" as="geometry" />
        </mxCell>
        <mxCell id="Q2OEIJeCDK87NDH6tHqp-52" value="count 1 (A, B)" style="ellipse;whiteSpace=wrap;html=1;fillColor=#dae8fc;strokeColor=#6c8ebf;" parent="Q2OEIJeCDK87NDH6tHqp-1" vertex="1">
          <mxGeometry x="-770" y="165" width="120" height="60" as="geometry" />
        </mxCell>
        <mxCell id="Q2OEIJeCDK87NDH6tHqp-53" value="" style="edgeStyle=orthogonalEdgeStyle;rounded=0;orthogonalLoop=1;jettySize=auto;html=1;" parent="Q2OEIJeCDK87NDH6tHqp-1" source="Q2OEIJeCDK87NDH6tHqp-54" target="Q2OEIJeCDK87NDH6tHqp-56" edge="1">
          <mxGeometry relative="1" as="geometry" />
        </mxCell>
        <mxCell id="Q2OEIJeCDK87NDH6tHqp-54" value="resistant =&amp;nbsp;&lt;span style=&quot;color: initial;&quot;&gt;B / A&amp;nbsp;&lt;/span&gt;" style="whiteSpace=wrap;html=1;fillColor=#dae8fc;strokeColor=#6c8ebf;" parent="Q2OEIJeCDK87NDH6tHqp-1" vertex="1">
          <mxGeometry x="-760" y="265" width="100" height="60" as="geometry" />
        </mxCell>
        <mxCell id="Q2OEIJeCDK87NDH6tHqp-55" value="" style="edgeStyle=orthogonalEdgeStyle;rounded=0;orthogonalLoop=1;jettySize=auto;html=1;" parent="Q2OEIJeCDK87NDH6tHqp-1" source="Q2OEIJeCDK87NDH6tHqp-56" target="Q2OEIJeCDK87NDH6tHqp-58" edge="1">
          <mxGeometry relative="1" as="geometry" />
        </mxCell>
        <mxCell id="Q2OEIJeCDK87NDH6tHqp-56" value="power = A * B" style="whiteSpace=wrap;html=1;fillColor=#dae8fc;strokeColor=#6c8ebf;" parent="Q2OEIJeCDK87NDH6tHqp-1" vertex="1">
          <mxGeometry x="-770" y="365" width="120" height="60" as="geometry" />
        </mxCell>
        <mxCell id="Q2OEIJeCDK87NDH6tHqp-58" value="Return&lt;div&gt;resistant, power&lt;/div&gt;" style="ellipse;whiteSpace=wrap;html=1;fillColor=#dae8fc;strokeColor=#6c8ebf;" parent="Q2OEIJeCDK87NDH6tHqp-1" vertex="1">
          <mxGeometry x="-770" y="465" width="120" height="60" as="geometry" />
        </mxCell>
        <mxCell id="opu7uX6bIFMGZEMMum_a-10" style="edgeStyle=orthogonalEdgeStyle;rounded=0;orthogonalLoop=1;jettySize=auto;html=1;exitX=0.5;exitY=1;exitDx=0;exitDy=0;entryX=0.5;entryY=0;entryDx=0;entryDy=0;" parent="Q2OEIJeCDK87NDH6tHqp-1" source="Q2OEIJeCDK87NDH6tHqp-60" target="Q2OEIJeCDK87NDH6tHqp-62" edge="1">
          <mxGeometry relative="1" as="geometry" />
        </mxCell>
        <mxCell id="Q2OEIJeCDK87NDH6tHqp-60" value="count 2 (A, B)" style="ellipse;whiteSpace=wrap;html=1;fillColor=#d5e8d4;strokeColor=#82b366;" parent="Q2OEIJeCDK87NDH6tHqp-1" vertex="1">
          <mxGeometry x="-589" y="165" width="120" height="60" as="geometry" />
        </mxCell>
        <mxCell id="opu7uX6bIFMGZEMMum_a-12" value="" style="edgeStyle=orthogonalEdgeStyle;rounded=0;orthogonalLoop=1;jettySize=auto;html=1;" parent="Q2OEIJeCDK87NDH6tHqp-1" source="Q2OEIJeCDK87NDH6tHqp-62" target="Q2OEIJeCDK87NDH6tHqp-64" edge="1">
          <mxGeometry relative="1" as="geometry" />
        </mxCell>
        <mxCell id="Q2OEIJeCDK87NDH6tHqp-62" value="current = A / B&amp;nbsp;" style="whiteSpace=wrap;html=1;fillColor=#d5e8d4;strokeColor=#82b366;" parent="Q2OEIJeCDK87NDH6tHqp-1" vertex="1">
          <mxGeometry x="-579" y="265" width="100" height="60" as="geometry" />
        </mxCell>
        <mxCell id="opu7uX6bIFMGZEMMum_a-15" value="" style="edgeStyle=orthogonalEdgeStyle;rounded=0;orthogonalLoop=1;jettySize=auto;html=1;" parent="Q2OEIJeCDK87NDH6tHqp-1" source="Q2OEIJeCDK87NDH6tHqp-64" target="Q2OEIJeCDK87NDH6tHqp-65" edge="1">
          <mxGeometry relative="1" as="geometry" />
        </mxCell>
        <mxCell id="Q2OEIJeCDK87NDH6tHqp-64" value="power = (A * A) / B" style="whiteSpace=wrap;html=1;fillColor=#d5e8d4;strokeColor=#82b366;" parent="Q2OEIJeCDK87NDH6tHqp-1" vertex="1">
          <mxGeometry x="-589" y="365" width="120" height="60" as="geometry" />
        </mxCell>
        <mxCell id="Q2OEIJeCDK87NDH6tHqp-65" value="Return&lt;div&gt;current, power&lt;/div&gt;" style="ellipse;whiteSpace=wrap;html=1;fillColor=#d5e8d4;strokeColor=#82b366;" parent="Q2OEIJeCDK87NDH6tHqp-1" vertex="1">
          <mxGeometry x="-589" y="465" width="120" height="60" as="geometry" />
        </mxCell>
        <mxCell id="opu7uX6bIFMGZEMMum_a-14" value="" style="edgeStyle=orthogonalEdgeStyle;rounded=0;orthogonalLoop=1;jettySize=auto;html=1;" parent="Q2OEIJeCDK87NDH6tHqp-1" source="Q2OEIJeCDK87NDH6tHqp-67" target="Q2OEIJeCDK87NDH6tHqp-69" edge="1">
          <mxGeometry relative="1" as="geometry" />
        </mxCell>
        <mxCell id="Q2OEIJeCDK87NDH6tHqp-67" value="count 3 (A, B)" style="ellipse;whiteSpace=wrap;html=1;fillColor=#e1d5e7;strokeColor=#9673a6;" parent="Q2OEIJeCDK87NDH6tHqp-1" vertex="1">
          <mxGeometry x="-410" y="165" width="120" height="60" as="geometry" />
        </mxCell>
        <mxCell id="opu7uX6bIFMGZEMMum_a-13" value="" style="edgeStyle=orthogonalEdgeStyle;rounded=0;orthogonalLoop=1;jettySize=auto;html=1;" parent="Q2OEIJeCDK87NDH6tHqp-1" source="Q2OEIJeCDK87NDH6tHqp-69" target="Q2OEIJeCDK87NDH6tHqp-71" edge="1">
          <mxGeometry relative="1" as="geometry" />
        </mxCell>
        <mxCell id="Q2OEIJeCDK87NDH6tHqp-69" value="volatge =&amp;nbsp; A * B" style="whiteSpace=wrap;html=1;fillColor=#e1d5e7;strokeColor=#9673a6;" parent="Q2OEIJeCDK87NDH6tHqp-1" vertex="1">
          <mxGeometry x="-400" y="265" width="100" height="60" as="geometry" />
        </mxCell>
        <mxCell id="opu7uX6bIFMGZEMMum_a-16" value="" style="edgeStyle=orthogonalEdgeStyle;rounded=0;orthogonalLoop=1;jettySize=auto;html=1;" parent="Q2OEIJeCDK87NDH6tHqp-1" source="Q2OEIJeCDK87NDH6tHqp-71" target="Q2OEIJeCDK87NDH6tHqp-72" edge="1">
          <mxGeometry relative="1" as="geometry" />
        </mxCell>
        <mxCell id="Q2OEIJeCDK87NDH6tHqp-71" value="power = A * A * B" style="whiteSpace=wrap;html=1;fillColor=#e1d5e7;strokeColor=#9673a6;" parent="Q2OEIJeCDK87NDH6tHqp-1" vertex="1">
          <mxGeometry x="-410" y="365" width="120" height="60" as="geometry" />
        </mxCell>
        <mxCell id="Q2OEIJeCDK87NDH6tHqp-72" value="Return&lt;div&gt;voltage, power&lt;/div&gt;" style="ellipse;whiteSpace=wrap;html=1;fillColor=#e1d5e7;strokeColor=#9673a6;" parent="Q2OEIJeCDK87NDH6tHqp-1" vertex="1">
          <mxGeometry x="-410" y="465" width="120" height="60" as="geometry" />
        </mxCell>
      </root>
    </mxGraphModel>
  </diagram>
</mxfile>
